# xmcd
#
# Track frame offsets:
#	150
#	17008
#	38253
#	57094
#	73451
#	94288
#	113241
#	137244
#	156714
#	178629
#	202740
#	222478
#	238202
#	250917
#
# Disc length: 3637 seconds
#
# Revision: 0
# Processed by: cddbd v1.5.2PL0 Copyright (c) Steve Scherf et al.
# Submitted via: audiograbber 1.83.01
#
DISCID=cf0e330e
DTITLE=Urban, Keith - Be here
DYEAR=2004
DGENRE=Country
TTITLE0=Days go by
TTITLE1=Better life
TTITLE2=Making memories of us
TTITLE3=God's been good to me
TTITLE4=The hard way
TTITLE5=You're my better half
TTITLE6=I could fly
TTITLE7=Tonight I wanna cry
TTITLE8=She's gotta be
TTITLE9=Nobody drinks alone
TTITLE10=Country comfort
TTITLE11=Live to love another day
TTITLE12=These are the days
TTITLE13=You (or somebody like you)
EXTD=
EXTT0=
EXTT1=
EXTT2=
EXTT3=
EXTT4=
EXTT5=
EXTT6=
EXTT7=
EXTT8=
EXTT9=
EXTT10=
EXTT11=
EXTT12=
EXTT13=
PLAYORDER=
